<?xml version="1.0" standalone="no"?>
<!DOCTYPE svg PUBLIC "-//W3C//DTD SVG 20010904//EN"
 "http://www.w3.org/TR/2001/REC-SVG-20010904/DTD/svg10.dtd">
<svg version="1.0" xmlns="http://www.w3.org/2000/svg"
 width="32.000000pt" height="32.000000pt" viewBox="0 0 32.000000 32.000000"
 preserveAspectRatio="xMidYMid meet">

<g transform="translate(0.000000,32.000000) scale(0.100000,-0.100000)"
fill="#000000" stroke="none">
<path d="M60 170 c0 -40 4 -70 10 -70 6 0 10 23 10 50 0 47 11 65 24 38 5 -10
7 -10 12 0 13 27 24 9 24 -38 0 -27 5 -50 10 -50 6 0 10 30 10 70 0 39 -3 70
-6 70 -4 0 -15 -10 -25 -22 l-19 -21 -19 21 c-10 12 -21 22 -25 22 -3 0 -6
-31 -6 -70z"/>
<path d="M193 225 c-23 -25 -16 -93 12 -120 29 -30 35 -31 35 -5 0 11 5 20 10
20 6 0 10 21 10 46 0 64 -36 95 -67 59z m47 -55 c0 -43 -3 -50 -20 -50 -17 0
-20 7 -20 50 0 43 3 50 20 50 17 0 20 -7 20 -50z"/>
</g>
</svg>
